<?xml version="1.0" encoding="UTF-8" standalone="no"?>
<svg
   xmlns:dc="http://purl.org/dc/elements/1.1/"
   xmlns:cc="http://creativecommons.org/ns#"
   xmlns:rdf="http://www.w3.org/1999/02/22-rdf-syntax-ns#"
   xmlns:svg="http://www.w3.org/2000/svg"
   xmlns="http://www.w3.org/2000/svg"
   xmlns:sodipodi="http://sodipodi.sourceforge.net/DTD/sodipodi-0.dtd"
   xmlns:inkscape="http://www.inkscape.org/namespaces/inkscape"
   sodipodi:docname="chamfer-tree.svg"
   inkscape:version="1.0alpha2 (e9e2f9c49c, 2019-06-03)"
   id="svg8"
   version="1.1"
   viewBox="0 0 141.09214 132.68117"
   height="132.68117mm"
   width="141.09213mm">
  <style
     id="style833"></style>
  <defs
     id="defs2" />
  <sodipodi:namedview
     lock-margins="true"
     fit-margin-bottom="2"
     fit-margin-right="2"
     fit-margin-left="2"
     fit-margin-top="2"
     inkscape:window-maximized="1"
     inkscape:window-y="57"
     inkscape:window-x="1479"
     inkscape:window-height="2044"
     inkscape:window-width="1420"
     inkscape:guide-bbox="true"
     showguides="true"
     inkscape:snap-global="true"
     inkscape:bbox-nodes="true"
     inkscape:snap-bbox-edge-midpoints="true"
     inkscape:snap-bbox="false"
     inkscape:snap-text-baseline="false"
     inkscape:snap-object-midpoints="true"
     showgrid="false"
     inkscape:document-rotation="0"
     inkscape:current-layer="layer1"
     inkscape:document-units="mm"
     inkscape:cy="314.64553"
     inkscape:cx="302.66262"
     inkscape:zoom="1.026107"
     inkscape:pageshadow="2"
     inkscape:pageopacity="0.0"
     borderopacity="1.0"
     bordercolor="#666666"
     pagecolor="#ffffff"
     id="base">
    <sodipodi:guide
       id="guide1114"
       orientation="1,0"
       position="52.695662,75.146951" />
    <sodipodi:guide
       id="guide1116"
       orientation="1,0"
       position="116.19565,75.146951" />
    <sodipodi:guide
       id="guide1118"
       orientation="1,0"
       position="85.589676,119.96802" />
    <sodipodi:guide
       id="guide1120"
       orientation="1,0"
       position="24.896473,33.139469" />
    <sodipodi:guide
       id="guide1140"
       orientation="1,0"
       position="78.342314,33.139469" />
    <sodipodi:guide
       id="guide2164"
       orientation="0,-1"
       position="24.896476,12.71315" />
  </sodipodi:namedview>
  <metadata
     id="metadata5">
    <rdf:RDF>
      <cc:Work
         rdf:about="">
        <dc:format>image/svg+xml</dc:format>
        <dc:type
           rdf:resource="http://purl.org/dc/dcmitype/StillImage" />
        <dc:title></dc:title>
      </cc:Work>
    </rdf:RDF>
  </metadata>
  <g
     transform="translate(-7.7251244,-75.964241)"
     id="layer1"
     inkscape:groupmode="layer"
     inkscape:label="Layer 1">
    <rect
       ry="7.7586808"
       y="78.464241"
       x="70.918327"
       height="20.42631"
       width="44.79295"
       id="rect835"
       style="vector-effect:none;fill:#ff9955;stroke:#000000;stroke-width:1;stop-color:#000000" />
    <g
       style="font-style:normal;font-variant:normal;font-weight:normal;font-stretch:normal;font-size:10.5833px;line-height:1.25;font-family:Hermit;-inkscape-font-specification:'Hermit Normal';font-variant-ligatures:normal;font-variant-caps:normal;font-variant-numeric:normal;font-variant-east-asian:normal;letter-spacing:0px;word-spacing:0px;fill:#000000;fill-opacity:1;stroke:none;stroke-width:0.264583"
       id="text1392"
       aria-label="Root">
      <path
         id="path1454"
         style="stroke-width:0.264583"
         d="m 81.306187,92.527916 h 0.952497 v -3.492489 h 1.18533 l 1.703911,3.492489 h 1.047747 l -1.714495,-3.566572 c 0.317499,0 1.714495,-0.645581 1.714495,-2.14841 0,0 -0.01058,-2.222493 -2.444742,-2.222493 h -2.444743 z m 0.952497,-4.444986 v -2.539992 h 1.492246 c 1.481662,0 1.492245,1.269996 1.492245,1.269996 0,0 -0.01058,1.269996 -1.492245,1.269996 z" />
      <path
         id="path1456"
         style="stroke-width:0.264583"
         d="m 90.28281,92.527916 c 1.481662,0 2.444742,0 2.444742,-2.645825 0,-2.645825 -0.96308,-2.645825 -2.444742,-2.645825 -1.481662,0 -2.444742,0 -2.444742,2.645825 0,2.645825 0.96308,2.645825 2.444742,2.645825 z m 0,-0.952497 c -0.952497,0 -1.492245,0 -1.492245,-1.693328 0,-1.693328 0.539748,-1.693328 1.492245,-1.693328 0.952497,0 1.492245,0 1.492245,1.693328 0,1.693328 -0.539748,1.693328 -1.492245,1.693328 z" />
      <path
         id="path1458"
         style="stroke-width:0.264583"
         d="m 96.81469,92.527916 c 1.481662,0 2.444743,0 2.444743,-2.645825 0,-2.645825 -0.963081,-2.645825 -2.444743,-2.645825 -1.481662,0 -2.444742,0 -2.444742,2.645825 0,2.645825 0.96308,2.645825 2.444742,2.645825 z m 0,-0.952497 c -0.952497,0 -1.492245,0 -1.492245,-1.693328 0,-1.693328 0.539748,-1.693328 1.492245,-1.693328 0.952497,0 1.492246,0 1.492246,1.693328 0,1.693328 -0.539749,1.693328 -1.492246,1.693328 z" />
      <path
         id="path1460"
         style="stroke-width:0.264583"
         d="m 103.78049,92.527916 h 1.48166 v -0.952497 c -2.52941,0 -2.87866,-0.359832 -2.87866,-1.693328 v -1.693328 h 2.87866 v -0.952497 h -2.87866 v -2.645825 h -1.05833 v 5.29165 c 0,1.979077 0.64558,2.645825 2.45533,2.645825 z" />
    </g>
    <rect
       ry="7.7586808"
       y="123.28531"
       x="101.5243"
       height="20.42631"
       width="44.79295"
       id="rect898"
       style="vector-effect:none;fill:#ff9955;stroke:#000000;stroke-width:1;stop-color:#000000" />
    <rect
       ry="7.7586808"
       y="185.7191"
       x="10.225124"
       height="20.42631"
       width="44.79295"
       id="rect835-5-2"
       style="vector-effect:none;fill:#333333;stroke:#000000;stroke-width:1;stop-color:#000000" />
    <text
       id="text1452"
       y="199.46762"
       x="15.729039"
       style="font-style:normal;font-weight:normal;font-size:10.5833px;line-height:1.25;font-family:sans-serif;letter-spacing:0px;word-spacing:0px;fill:#00ff00;fill-opacity:1;stroke:none;stroke-width:0.264583"
       xml:space="preserve"><tspan
         style="stroke-width:0.264583"
         id="tspan1450"
         y="199.46762"
         x="15.729039"
         sodipodi:role="line"><tspan
           style="stroke-width:0.264583"
           id="tspan1448"
           y="199.46762"
           x="15.729039">$_</tspan></tspan></text>
    <rect
       style="vector-effect:none;fill:#333333;stroke:#000000;stroke-width:1;stop-color:#000000"
       id="rect999"
       width="44.79295"
       height="20.42631"
       x="63.670963"
       y="185.7191"
       ry="7.7586808" />
    <text
       id="text1446"
       y="199.46762"
       x="69.174873"
       style="font-style:normal;font-weight:normal;font-size:10.5833px;line-height:1.25;font-family:sans-serif;letter-spacing:0px;word-spacing:0px;fill:#00ff00;fill-opacity:1;stroke:none;stroke-width:0.264583"
       xml:space="preserve"><tspan
         style="stroke-width:0.264583"
         id="tspan1444"
         y="199.46762"
         x="69.174873"
         sodipodi:role="line"><tspan
           style="stroke-width:0.264583"
           id="tspan1442"
           y="199.46762"
           x="69.174873">$_</tspan></tspan></text>
    <rect
       ry="7.7586808"
       y="143.71162"
       x="101.5243"
       height="20.42631"
       width="44.79295"
       id="rect1032"
       style="vector-effect:none;fill:#333333;stroke:#000000;stroke-width:1;stop-color:#000000" />
    <text
       id="text1440"
       y="157.46014"
       x="107.02821"
       style="font-style:normal;font-weight:normal;font-size:10.5833px;line-height:1.25;font-family:sans-serif;letter-spacing:0px;word-spacing:0px;fill:#00ff00;fill-opacity:1;stroke:none;stroke-width:0.264583"
       xml:space="preserve"><tspan
         style="stroke-width:0.264583"
         id="tspan1438"
         y="157.46014"
         x="107.02821"
         sodipodi:role="line"><tspan
           style="stroke-width:0.264583"
           id="tspan1436"
           y="157.46014"
           x="107.02821">$_</tspan></tspan></text>
    <flowRoot
       transform="scale(0.26458333)"
       style="font-style:normal;font-weight:normal;font-size:40px;line-height:1.25;font-family:sans-serif;letter-spacing:0px;word-spacing:0px;fill:#000000;fill-opacity:1;stroke:none"
       id="flowRoot1050"
       xml:space="preserve"><flowRegion
         id="flowRegion1052"><rect
           y="463.00739"
           x="408.9393"
           height="74.780785"
           width="117.21638"
           id="rect1054" /></flowRegion><flowPara
         id="flowPara1056"></flowPara></flowRoot>    <g
       style="font-style:normal;font-variant:normal;font-weight:normal;font-stretch:normal;font-size:5.64444px;line-height:1.25;font-family:Hermit;-inkscape-font-specification:'Hermit Normal';font-variant-ligatures:normal;font-variant-caps:normal;font-variant-numeric:normal;font-variant-east-asian:normal;letter-spacing:0px;word-spacing:0px;fill:#000000;fill-opacity:1;stroke:none;stroke-width:0.264583"
       id="text1410"
       aria-label="Container
(client)">
      <path
         id="path1482"
         style="stroke-width:0.264583"
         d="m 110.4977,131.99365 c 0.508,0 1.30387,0 1.30387,-0.90311 h -0.508 c 0,0.39511 -0.52493,0.39511 -0.78458,0.39511 h -0.0113 c -0.508,0 -0.79586,-0.39511 -0.79586,-1.60866 0,-1.21356 0.28786,-1.60867 0.79586,-1.60867 h 0.0113 c 0.25965,0 0.78458,0 0.78458,0.39511 h 0.508 c 0,-0.90311 -0.79587,-0.90311 -1.30387,-0.90311 -0.79022,0 -1.30386,0.508 -1.30386,2.11667 0,1.60866 0.51364,2.11666 1.30386,2.11666 z" />
      <path
         id="path1484"
         style="stroke-width:0.264583"
         d="m 113.98138,131.99365 c 0.79022,0 1.30387,0 1.30387,-1.41111 0,-1.41111 -0.51365,-1.41111 -1.30387,-1.41111 -0.79022,0 -1.30387,0 -1.30387,1.41111 0,1.41111 0.51365,1.41111 1.30387,1.41111 z m 0,-0.508 c -0.508,0 -0.79587,0 -0.79587,-0.90311 0,-0.90311 0.28787,-0.90311 0.79587,-0.90311 0.508,0 0.79587,0 0.79587,0.90311 0,0.90311 -0.28787,0.90311 -0.79587,0.90311 z" />
      <path
         id="path1486"
         style="stroke-width:0.264583"
         d="m 116.16119,131.99365 h 0.508 v -1.524 c 0,-0.79022 0.006,-0.79022 0.79587,-0.79022 0.79022,0 0.79586,0.79022 0.79586,0.79022 v 1.524 h 0.508 v -1.524 c 0,0 -0.006,-1.29822 -1.30386,-1.29822 -1.29822,0 -1.30387,0 -1.30387,1.29822 z" />
      <path
         id="path1488"
         style="stroke-width:0.264583"
         d="m 121.18016,131.99365 h 0.79022 v -0.508 c -1.34902,0 -1.53529,-0.19191 -1.53529,-0.90311 v -0.90311 h 1.53529 v -0.508 h -1.53529 v -1.41111 h -0.56444 v 2.82222 c 0,1.05551 0.34431,1.41111 1.30951,1.41111 z" />
      <path
         id="path1490"
         style="stroke-width:0.264583"
         d="m 124.43241,131.99365 h 1.30387 v -1.66511 c 0,-0.24271 -0.079,-1.15711 -1.30387,-1.15711 -0.42333,0 -0.81844,0.16369 -1.1684,0.33867 l 0.22578,0.42333 c 0.254,-0.12418 0.49107,-0.254 0.94262,-0.254 0.42334,0 0.79587,0.10725 0.79587,0.64911 h -0.79587 c -0.79022,0 -1.30386,0.11854 -1.30386,0.82974 0,0.63217 0.51364,0.83537 1.30386,0.83537 z m 0,-0.508 c -0.4064,0 -0.79586,0 -0.79586,-0.32737 0,-0.31609 0.38946,-0.32174 0.79586,-0.32174 h 0.79587 v 0.64911 z" />
      <path
         id="path1492"
         style="stroke-width:0.264583"
         d="m 127.80885,127.76032 c -0.254,0 -0.508,0.254 -0.508,0.508 0,0.254 0.254,0.508 0.508,0.508 0.254,0 0.508,-0.254 0.508,-0.508 0,-0.254 -0.254,-0.508 -0.508,-0.508 z m -1.19662,4.23333 h 2.60773 v -0.508 h -1.04987 v -2.31422 h -1.30386 v 0.508 h 0.79586 v 1.80622 h -1.04986 z" />
      <path
         id="path1494"
         style="stroke-width:0.264583"
         d="m 130.0959,131.99365 h 0.508 v -1.524 c 0,-0.79022 0.006,-0.79022 0.79587,-0.79022 0.79022,0 0.79587,0.79022 0.79587,0.79022 v 1.524 h 0.508 v -1.524 c 0,0 -0.006,-1.29822 -1.30387,-1.29822 -1.29822,0 -1.30387,0 -1.30387,1.29822 z" />
      <path
         id="path1496"
         style="stroke-width:0.264583"
         d="m 134.88345,131.99365 h 1.04986 v -0.508 h -1.04986 c -0.508,0 -0.79587,0 -0.79587,-0.64911 h 2.09973 v -0.254 c 0,-1.41111 -0.51364,-1.41111 -1.30386,-1.41111 -0.79022,0 -1.30387,0 -1.30387,1.41111 0,1.41111 0.51365,1.41111 1.30387,1.41111 z m -0.79587,-1.66511 c 0,-0.64911 0.28787,-0.64911 0.79587,-0.64911 0.508,0 0.79586,0 0.79586,0.64911 z" />
      <path
         id="path1498"
         style="stroke-width:0.264583"
         d="m 137.06326,131.99365 h 0.508 v -1.41111 c 0,-0.90311 0.006,-0.90311 0.79587,-0.90311 h 0.0113 c 0.25965,0 0.78458,0 0.78458,0.39511 h 0.508 c 0,-0.90311 -0.79586,-0.90311 -1.30386,-0.90311 -1.29823,0 -1.30387,0 -1.30387,1.41111 z" />
      <path
         id="path1500"
         style="stroke-width:0.264583"
         d="m 111.58144,139.55719 v -0.508 c -1.64818,0 -1.65383,-1.84008 -1.65383,-1.86266 0,-0.0226 0.006,-1.86267 1.65383,-1.86267 v -0.508 c -2.16183,0 -2.16747,2.37067 -2.16747,2.37067 0,0 0.006,2.37066 2.16747,2.37066 z" />
      <path
         id="path1502"
         style="stroke-width:0.264583"
         d="m 113.98138,139.04919 c 0.508,0 1.30387,0 1.30387,-0.90311 h -0.508 c 0,0.39511 -0.52494,0.39511 -0.78458,0.39511 h -0.0113 c -0.508,0 -0.79587,-0.39511 -0.79587,-0.90311 0,-0.508 0.28787,-0.90311 0.79587,-0.90311 h 0.0113 c 0.25964,0 0.78458,0 0.78458,0.39511 h 0.508 c 0,-0.90311 -0.79587,-0.90311 -1.30387,-0.90311 -0.79022,0 -1.30387,0.508 -1.30387,1.41111 0,0.90311 0.51365,1.41111 1.30387,1.41111 z" />
      <path
         id="path1504"
         style="stroke-width:0.264583"
         d="m 116.16119,139.04919 h 2.60773 v -0.508 h -1.04986 v -3.72533 h -1.016 v 0.508 h 0.508 v 3.21733 h -1.04987 z" />
      <path
         id="path1506"
         style="stroke-width:0.264583"
         d="m 120.84149,134.81586 c -0.254,0 -0.508,0.254 -0.508,0.508 0,0.254 0.254,0.508 0.508,0.508 0.254,0 0.508,-0.254 0.508,-0.508 0,-0.254 -0.254,-0.508 -0.508,-0.508 z m -1.19662,4.23333 h 2.60773 v -0.508 h -1.04986 v -2.31422 h -1.30387 v 0.508 h 0.79587 v 1.80622 h -1.04987 z" />
      <path
         id="path1508"
         style="stroke-width:0.264583"
         d="m 124.43241,139.04919 h 1.04987 v -0.508 h -1.04987 c -0.508,0 -0.79586,0 -0.79586,-0.64911 h 2.09973 v -0.254 c 0,-1.41111 -0.51364,-1.41111 -1.30387,-1.41111 -0.79022,0 -1.30386,0 -1.30386,1.41111 0,1.41111 0.51364,1.41111 1.30386,1.41111 z m -0.79586,-1.66511 c 0,-0.64911 0.28786,-0.64911 0.79586,-0.64911 0.508,0 0.79587,0 0.79587,0.64911 z" />
      <path
         id="path1510"
         style="stroke-width:0.264583"
         d="m 126.61223,139.04919 h 0.50799 v -1.52399 c 0,-0.79023 0.006,-0.79023 0.79587,-0.79023 0.79022,0 0.79587,0.79023 0.79587,0.79023 v 1.52399 h 0.508 v -1.52399 c 0,0 -0.006,-1.29823 -1.30387,-1.29823 -1.29822,0 -1.30386,0 -1.30386,1.29823 z" />
      <path
         id="path1512"
         style="stroke-width:0.264583"
         d="m 131.63119,139.04919 h 0.79022 v -0.508 c -1.34902,0 -1.53528,-0.19191 -1.53528,-0.90311 v -0.90311 h 1.53528 v -0.508 h -1.53528 v -1.41111 h -0.56445 v 2.82222 c 0,1.05551 0.34431,1.41111 1.30951,1.41111 z" />
      <path
         id="path1514"
         style="stroke-width:0.264583"
         d="m 133.79972,139.55719 c 2.16182,0 2.16746,-2.37066 2.16746,-2.37066 0,0 -0.006,-2.37067 -2.16746,-2.37067 v 0.508 c 1.64817,0 1.65382,1.84009 1.65382,1.86267 0,0.0226 -0.006,1.86266 -1.65382,1.86266 z" />
    </g>
    <rect
       style="vector-effect:none;fill:#ff9955;stroke:#000000;stroke-width:1;stop-color:#000000"
       id="rect1068"
       width="44.79295"
       height="20.42631"
       x="38.024311"
       y="123.28531"
       ry="7.7586808" />
    <g
       style="font-style:normal;font-variant:normal;font-weight:normal;font-stretch:normal;font-size:5.64444px;line-height:1.25;font-family:Hermit;-inkscape-font-specification:'Hermit Normal';font-variant-ligatures:normal;font-variant-caps:normal;font-variant-numeric:normal;font-variant-east-asian:normal;letter-spacing:0px;word-spacing:0px;fill:#000000;fill-opacity:1;stroke:none;stroke-width:0.264583"
       id="text1398"
       aria-label="Container">
      <path
         id="path1463"
         style="stroke-width:0.264583"
         d="m 46.997695,131.99365 c 0.508,0 1.303866,0 1.303866,-0.90311 h -0.508 c 0,0.39511 -0.524933,0.39511 -0.784577,0.39511 h -0.01129 c -0.508,0 -0.795866,-0.39511 -0.795866,-1.60866 0,-1.21356 0.287866,-1.60867 0.795866,-1.60867 h 0.01129 c 0.259644,0 0.784577,0 0.784577,0.39511 h 0.508 c 0,-0.90311 -0.795866,-0.90311 -1.303866,-0.90311 -0.790222,0 -1.303866,0.508 -1.303866,2.11667 0,1.60866 0.513644,2.11666 1.303866,2.11666 z" />
      <path
         id="path1465"
         style="stroke-width:0.264583"
         d="m 50.481373,131.99365 c 0.790221,0 1.303865,0 1.303865,-1.41111 0,-1.41111 -0.513644,-1.41111 -1.303865,-1.41111 -0.790222,0 -1.303866,0 -1.303866,1.41111 0,1.41111 0.513644,1.41111 1.303866,1.41111 z m 0,-0.508 c -0.508,0 -0.795866,0 -0.795866,-0.90311 0,-0.90311 0.287866,-0.90311 0.795866,-0.90311 0.507999,0 0.795866,0 0.795866,0.90311 0,0.90311 -0.287867,0.90311 -0.795866,0.90311 z" />
      <path
         id="path1467"
         style="stroke-width:0.264583"
         d="m 52.661185,131.99365 h 0.508 v -1.524 c 0,-0.79022 0.0056,-0.79022 0.795866,-0.79022 0.790221,0 0.795866,0.79022 0.795866,0.79022 v 1.524 h 0.507999 v -1.524 c 0,0 -0.0056,-1.29822 -1.303865,-1.29822 -1.298222,0 -1.303866,0 -1.303866,1.29822 z" />
      <path
         id="path1469"
         style="stroke-width:0.264583"
         d="m 57.680151,131.99365 h 0.790221 v -0.508 c -1.349021,0 -1.535288,-0.19191 -1.535288,-0.90311 v -0.90311 h 1.535288 v -0.508 h -1.535288 v -1.41111 H 56.37064 v 2.82222 c 0,1.05551 0.344311,1.41111 1.309511,1.41111 z" />
      <path
         id="path1471"
         style="stroke-width:0.264583"
         d="m 60.932406,131.99365 h 1.303866 v -1.66511 c 0,-0.24271 -0.07902,-1.15711 -1.303866,-1.15711 -0.423333,0 -0.818443,0.16369 -1.168399,0.33867 l 0.225778,0.42333 c 0.254,-0.12418 0.491066,-0.254 0.942621,-0.254 0.423333,0 0.795866,0.10725 0.795866,0.64911 h -0.795866 c -0.790221,0 -1.303865,0.11854 -1.303865,0.82974 0,0.63217 0.513644,0.83537 1.303865,0.83537 z m 0,-0.508 c -0.406399,0 -0.795866,0 -0.795866,-0.32737 0,-0.31609 0.389467,-0.32174 0.795866,-0.32174 h 0.795866 v 0.64911 z" />
      <path
         id="path1473"
         style="stroke-width:0.264583"
         d="m 64.308839,127.76032 c -0.254,0 -0.508,0.254 -0.508,0.508 0,0.254 0.254,0.508 0.508,0.508 0.254,0 0.508,-0.254 0.508,-0.508 0,-0.254 -0.254,-0.508 -0.508,-0.508 z m -1.196621,4.23333 h 2.607731 v -0.508 h -1.049866 v -2.31422 h -1.303866 v 0.508 h 0.795866 v 1.80622 h -1.049865 z" />
      <path
         id="path1475"
         style="stroke-width:0.264583"
         d="m 66.595896,131.99365 h 0.508 v -1.524 c 0,-0.79022 0.0056,-0.79022 0.795866,-0.79022 0.790222,0 0.795866,0.79022 0.795866,0.79022 v 1.524 h 0.508 v -1.524 c 0,0 -0.0056,-1.29822 -1.303866,-1.29822 -1.298221,0 -1.303866,0 -1.303866,1.29822 z" />
      <path
         id="path1477"
         style="stroke-width:0.264583"
         d="m 71.383441,131.99365 h 1.049866 v -0.508 h -1.049866 c -0.508,0 -0.795866,0 -0.795866,-0.64911 h 2.099732 v -0.254 c 0,-1.41111 -0.513644,-1.41111 -1.303866,-1.41111 -0.790222,0 -1.303866,0 -1.303866,1.41111 0,1.41111 0.513644,1.41111 1.303866,1.41111 z m -0.795866,-1.66511 c 0,-0.64911 0.287866,-0.64911 0.795866,-0.64911 0.508,0 0.795866,0 0.795866,0.64911 z" />
      <path
         id="path1479"
         style="stroke-width:0.264583"
         d="m 73.563252,131.99365 h 0.508 v -1.41111 c 0,-0.90311 0.0056,-0.90311 0.795866,-0.90311 h 0.01129 c 0.259644,0 0.784577,0 0.784577,0.39511 h 0.508 c 0,-0.90311 -0.795867,-0.90311 -1.303866,-0.90311 -1.298221,0 -1.303866,0 -1.303866,1.41111 z" />
    </g>
    <rect
       ry="7.7586808"
       y="165.29279"
       x="63.670963"
       height="20.42631"
       width="44.79295"
       id="rect1080"
       style="vector-effect:none;fill:#ff9955;stroke:#000000;stroke-width:1;stop-color:#000000" />
    <g
       style="font-style:normal;font-variant:normal;font-weight:normal;font-stretch:normal;font-size:5.64444px;line-height:1.25;font-family:Hermit;-inkscape-font-specification:'Hermit Normal';font-variant-ligatures:normal;font-variant-caps:normal;font-variant-numeric:normal;font-variant-east-asian:normal;letter-spacing:0px;word-spacing:0px;fill:#000000;fill-opacity:1;stroke:none;stroke-width:0.264583"
       id="text1422"
       aria-label="Container
(client)">
      <path
         id="path1517"
         style="stroke-width:0.264583"
         d="m 72.644347,174.00113 c 0.508,0 1.303866,0 1.303866,-0.90311 h -0.508 c 0,0.39511 -0.524933,0.39511 -0.784577,0.39511 h -0.01129 c -0.507999,0 -0.795866,-0.39511 -0.795866,-1.60867 0,-1.21355 0.287867,-1.60866 0.795866,-1.60866 h 0.01129 c 0.259644,0 0.784577,0 0.784577,0.39511 h 0.508 c 0,-0.90311 -0.795866,-0.90311 -1.303866,-0.90311 -0.790221,0 -1.303866,0.508 -1.303866,2.11666 0,1.60867 0.513645,2.11667 1.303866,2.11667 z" />
      <path
         id="path1519"
         style="stroke-width:0.264583"
         d="m 76.128025,174.00113 c 0.790222,0 1.303866,0 1.303866,-1.41111 0,-1.41111 -0.513644,-1.41111 -1.303866,-1.41111 -0.790222,0 -1.303866,0 -1.303866,1.41111 0,1.41111 0.513644,1.41111 1.303866,1.41111 z m 0,-0.508 c -0.508,0 -0.795866,0 -0.795866,-0.90311 0,-0.90311 0.287866,-0.90311 0.795866,-0.90311 0.508,0 0.795866,0 0.795866,0.90311 0,0.90311 -0.287866,0.90311 -0.795866,0.90311 z" />
      <path
         id="path1521"
         style="stroke-width:0.264583"
         d="m 78.307837,174.00113 h 0.508 v -1.524 c 0,-0.79022 0.0056,-0.79022 0.795866,-0.79022 0.790222,0 0.795866,0.79022 0.795866,0.79022 v 1.524 h 0.508 v -1.524 c 0,0 -0.0056,-1.29822 -1.303866,-1.29822 -1.298221,0 -1.303866,0 -1.303866,1.29822 z" />
      <path
         id="path1523"
         style="stroke-width:0.264583"
         d="m 83.326803,174.00113 h 0.790221 v -0.508 c -1.349021,0 -1.535287,-0.19191 -1.535287,-0.90311 v -0.90311 h 1.535287 v -0.508 h -1.535287 v -1.41111 h -0.564444 v 2.82222 c 0,1.05551 0.344311,1.41111 1.30951,1.41111 z" />
      <path
         id="path1525"
         style="stroke-width:0.264583"
         d="m 86.579059,174.00113 h 1.303865 v -1.66511 c 0,-0.24271 -0.07902,-1.15711 -1.303865,-1.15711 -0.423333,0 -0.818444,0.16369 -1.168399,0.33867 l 0.225777,0.42333 c 0.254,-0.12418 0.491066,-0.254 0.942622,-0.254 0.423333,0 0.795866,0.10724 0.795866,0.64911 h -0.795866 c -0.790222,0 -1.303866,0.11853 -1.303866,0.82973 0,0.63218 0.513644,0.83538 1.303866,0.83538 z m 0,-0.508 c -0.4064,0 -0.795866,0 -0.795866,-0.32738 0,-0.31609 0.389466,-0.32173 0.795866,-0.32173 h 0.795866 v 0.64911 z" />
      <path
         id="path1527"
         style="stroke-width:0.264583"
         d="m 89.955491,169.7678 c -0.254,0 -0.507999,0.254 -0.507999,0.508 0,0.254 0.253999,0.508 0.507999,0.508 0.254,0 0.508,-0.254 0.508,-0.508 0,-0.254 -0.254,-0.508 -0.508,-0.508 z m -1.196621,4.23333 h 2.607731 v -0.508 h -1.049866 v -2.31422 H 89.01287 v 0.508 h 0.795866 v 1.80622 H 88.75887 Z" />
      <path
         id="path1529"
         style="stroke-width:0.264583"
         d="m 92.242549,174.00113 h 0.507999 v -1.524 c 0,-0.79022 0.0056,-0.79022 0.795866,-0.79022 0.790222,0 0.795866,0.79022 0.795866,0.79022 v 1.524 h 0.508 v -1.524 c 0,0 -0.0056,-1.29822 -1.303866,-1.29822 -1.298221,0 -1.303865,0 -1.303865,1.29822 z" />
      <path
         id="path1531"
         style="stroke-width:0.264583"
         d="m 97.030093,174.00113 h 1.049866 v -0.508 h -1.049866 c -0.507999,0 -0.795866,0 -0.795866,-0.64911 h 2.099732 v -0.254 c 0,-1.41111 -0.513644,-1.41111 -1.303866,-1.41111 -0.790221,0 -1.303866,0 -1.303866,1.41111 0,1.41111 0.513645,1.41111 1.303866,1.41111 z m -0.795866,-1.66511 c 0,-0.64911 0.287867,-0.64911 0.795866,-0.64911 0.508,0 0.795866,0 0.795866,0.64911 z" />
      <path
         id="path1533"
         style="stroke-width:0.264583"
         d="m 99.209904,174.00113 h 0.508 v -1.41111 c 0,-0.90311 0.0056,-0.90311 0.795866,-0.90311 h 0.0113 c 0.25964,0 0.78458,0 0.78458,0.39511 h 0.508 c 0,-0.90311 -0.79587,-0.90311 -1.30387,-0.90311 -1.298221,0 -1.303866,0 -1.303866,1.41111 z" />
      <path
         id="path1535"
         style="stroke-width:0.264583"
         d="m 73.72808,181.56467 v -0.508 c -1.648177,0 -1.653821,-1.84009 -1.653821,-1.86266 0,-0.0226 0.0056,-1.86267 1.653821,-1.86267 v -0.508 c -2.161821,0 -2.167465,2.37067 -2.167465,2.37067 0,0 0.0056,2.37066 2.167465,2.37066 z" />
      <path
         id="path1537"
         style="stroke-width:0.264583"
         d="m 76.128025,181.05667 c 0.508,0 1.303866,0 1.303866,-0.90311 h -0.508 c 0,0.39511 -0.524933,0.39511 -0.784577,0.39511 h -0.01129 c -0.508,0 -0.795866,-0.39511 -0.795866,-0.90311 0,-0.508 0.287866,-0.90311 0.795866,-0.90311 h 0.01129 c 0.259644,0 0.784577,0 0.784577,0.39511 h 0.508 c 0,-0.90311 -0.795866,-0.90311 -1.303866,-0.90311 -0.790222,0 -1.303866,0.508 -1.303866,1.41111 0,0.90311 0.513644,1.41111 1.303866,1.41111 z" />
      <path
         id="path1539"
         style="stroke-width:0.264583"
         d="m 78.307837,181.05667 h 2.607732 v -0.508 h -1.049866 v -3.72533 h -1.016 v 0.508 h 0.508 v 3.21733 h -1.049866 z" />
      <path
         id="path1541"
         style="stroke-width:0.264583"
         d="m 82.988136,176.82334 c -0.253999,0 -0.507999,0.254 -0.507999,0.508 0,0.254 0.254,0.508 0.507999,0.508 0.254,0 0.508,-0.254 0.508,-0.508 0,-0.254 -0.254,-0.508 -0.508,-0.508 z m -1.196621,4.23333 h 2.607731 v -0.508 h -1.049865 v -2.31422 h -1.303866 v 0.508 h 0.795866 v 1.80622 h -1.049866 z" />
      <path
         id="path1543"
         style="stroke-width:0.264583"
         d="m 86.579059,181.05667 h 1.049865 v -0.508 h -1.049865 c -0.508,0 -0.795866,0 -0.795866,-0.64911 h 2.099731 v -0.254 c 0,-1.41111 -0.513644,-1.41111 -1.303865,-1.41111 -0.790222,0 -1.303866,0 -1.303866,1.41111 0,1.41111 0.513644,1.41111 1.303866,1.41111 z m -0.795866,-1.66511 c 0,-0.64911 0.287866,-0.64911 0.795866,-0.64911 0.507999,0 0.795866,0 0.795866,0.64911 z" />
      <path
         id="path1545"
         style="stroke-width:0.264583"
         d="m 88.75887,181.05667 h 0.507999 v -1.524 c 0,-0.79022 0.0056,-0.79022 0.795867,-0.79022 0.790221,0 0.795866,0.79022 0.795866,0.79022 v 1.524 h 0.507999 v -1.524 c 0,0 -0.0056,-1.29822 -1.303865,-1.29822 -1.298222,0 -1.303866,0 -1.303866,1.29822 z" />
      <path
         id="path1547"
         style="stroke-width:0.264583"
         d="m 93.777836,181.05667 h 0.790222 v -0.508 c -1.349021,0 -1.535288,-0.19191 -1.535288,-0.90311 v -0.90311 h 1.535288 v -0.508 H 93.03277 v -1.41111 h -0.564444 v 2.82222 c 0,1.05551 0.344311,1.41111 1.30951,1.41111 z" />
      <path
         id="path1549"
         style="stroke-width:0.264583"
         d="m 95.946361,181.56467 c 2.16182,0 2.167465,-2.37066 2.167465,-2.37066 0,0 -0.0056,-2.37067 -2.167465,-2.37067 v 0.508 c 1.648176,0 1.653821,1.84009 1.653821,1.86267 0,0.0226 -0.0056,1.86266 -1.653821,1.86266 z" />
    </g>
    <rect
       style="vector-effect:none;fill:#ff9955;stroke:#000000;stroke-width:1;stop-color:#000000"
       id="rect1092"
       width="44.79295"
       height="20.42631"
       x="10.225124"
       y="165.29279"
       ry="7.7586808" />
    <g
       style="font-style:normal;font-variant:normal;font-weight:normal;font-stretch:normal;font-size:5.64444px;line-height:1.25;font-family:Hermit;-inkscape-font-specification:'Hermit Normal';font-variant-ligatures:normal;font-variant-caps:normal;font-variant-numeric:normal;font-variant-east-asian:normal;letter-spacing:0px;word-spacing:0px;fill:#000000;fill-opacity:1;stroke:none;stroke-width:0.264583"
       id="text1434"
       aria-label="Container
(client)">
      <path
         id="path1552"
         style="stroke-width:0.264583"
         d="m 19.198508,174.00113 c 0.508,0 1.303866,0 1.303866,-0.90311 h -0.508 c 0,0.39511 -0.524933,0.39511 -0.784577,0.39511 h -0.01129 c -0.507999,0 -0.795866,-0.39511 -0.795866,-1.60867 0,-1.21355 0.287867,-1.60866 0.795866,-1.60866 h 0.01129 c 0.259644,0 0.784577,0 0.784577,0.39511 h 0.508 c 0,-0.90311 -0.795866,-0.90311 -1.303866,-0.90311 -0.790221,0 -1.303865,0.508 -1.303865,2.11666 0,1.60867 0.513644,2.11667 1.303865,2.11667 z" />
      <path
         id="path1554"
         style="stroke-width:0.264583"
         d="m 22.682186,174.00113 c 0.790222,0 1.303866,0 1.303866,-1.41111 0,-1.41111 -0.513644,-1.41111 -1.303866,-1.41111 -0.790222,0 -1.303866,0 -1.303866,1.41111 0,1.41111 0.513644,1.41111 1.303866,1.41111 z m 0,-0.508 c -0.508,0 -0.795866,0 -0.795866,-0.90311 0,-0.90311 0.287866,-0.90311 0.795866,-0.90311 0.508,0 0.795866,0 0.795866,0.90311 0,0.90311 -0.287866,0.90311 -0.795866,0.90311 z" />
      <path
         id="path1556"
         style="stroke-width:0.264583"
         d="m 24.861998,174.00113 h 0.508 v -1.524 c 0,-0.79022 0.0056,-0.79022 0.795866,-0.79022 0.790222,0 0.795866,0.79022 0.795866,0.79022 v 1.524 h 0.508 v -1.524 c 0,0 -0.0056,-1.29822 -1.303866,-1.29822 -1.298221,0 -1.303866,0 -1.303866,1.29822 z" />
      <path
         id="path1558"
         style="stroke-width:0.264583"
         d="m 29.880964,174.00113 h 0.790221 v -0.508 c -1.349021,0 -1.535287,-0.19191 -1.535287,-0.90311 v -0.90311 h 1.535287 v -0.508 h -1.535287 v -1.41111 h -0.564444 v 2.82222 c 0,1.05551 0.344311,1.41111 1.30951,1.41111 z" />
      <path
         id="path1560"
         style="stroke-width:0.264583"
         d="m 33.13322,174.00113 h 1.303865 v -1.66511 c 0,-0.24271 -0.07902,-1.15711 -1.303865,-1.15711 -0.423333,0 -0.818444,0.16369 -1.168399,0.33867 l 0.225777,0.42333 c 0.254,-0.12418 0.491066,-0.254 0.942622,-0.254 0.423333,0 0.795866,0.10724 0.795866,0.64911 H 33.13322 c -0.790222,0 -1.303866,0.11853 -1.303866,0.82973 0,0.63218 0.513644,0.83538 1.303866,0.83538 z m 0,-0.508 c -0.4064,0 -0.795866,0 -0.795866,-0.32738 0,-0.31609 0.389466,-0.32173 0.795866,-0.32173 h 0.795866 v 0.64911 z" />
      <path
         id="path1562"
         style="stroke-width:0.264583"
         d="m 36.509652,169.7678 c -0.254,0 -0.507999,0.254 -0.507999,0.508 0,0.254 0.253999,0.508 0.507999,0.508 0.254,0 0.508,-0.254 0.508,-0.508 0,-0.254 -0.254,-0.508 -0.508,-0.508 z m -1.196621,4.23333 h 2.607731 v -0.508 h -1.049866 v -2.31422 h -1.303865 v 0.508 h 0.795866 v 1.80622 h -1.049866 z" />
      <path
         id="path1564"
         style="stroke-width:0.264583"
         d="m 38.79671,174.00113 h 0.507999 v -1.524 c 0,-0.79022 0.0056,-0.79022 0.795866,-0.79022 0.790222,0 0.795866,0.79022 0.795866,0.79022 v 1.524 h 0.508 v -1.524 c 0,0 -0.0056,-1.29822 -1.303866,-1.29822 -1.298221,0 -1.303865,0 -1.303865,1.29822 z" />
      <path
         id="path1566"
         style="stroke-width:0.264583"
         d="m 43.584254,174.00113 h 1.049866 v -0.508 h -1.049866 c -0.507999,0 -0.795866,0 -0.795866,-0.64911 h 2.099732 v -0.254 c 0,-1.41111 -0.513644,-1.41111 -1.303866,-1.41111 -0.790221,0 -1.303865,0 -1.303865,1.41111 0,1.41111 0.513644,1.41111 1.303865,1.41111 z m -0.795866,-1.66511 c 0,-0.64911 0.287867,-0.64911 0.795866,-0.64911 0.508,0 0.795866,0 0.795866,0.64911 z" />
      <path
         id="path1568"
         style="stroke-width:0.264583"
         d="m 45.764065,174.00113 h 0.508 v -1.41111 c 0,-0.90311 0.0056,-0.90311 0.795866,-0.90311 h 0.01129 c 0.259644,0 0.784577,0 0.784577,0.39511 h 0.508 c 0,-0.90311 -0.795866,-0.90311 -1.303866,-0.90311 -1.298221,0 -1.303866,0 -1.303866,1.41111 z" />
      <path
         id="path1570"
         style="stroke-width:0.264583"
         d="m 20.282241,181.56467 v -0.508 c -1.648177,0 -1.653821,-1.84009 -1.653821,-1.86266 0,-0.0226 0.0056,-1.86267 1.653821,-1.86267 v -0.508 c -2.161821,0 -2.167465,2.37067 -2.167465,2.37067 0,0 0.0056,2.37066 2.167465,2.37066 z" />
      <path
         id="path1572"
         style="stroke-width:0.264583"
         d="m 22.682186,181.05667 c 0.508,0 1.303866,0 1.303866,-0.90311 h -0.508 c 0,0.39511 -0.524933,0.39511 -0.784577,0.39511 h -0.01129 c -0.508,0 -0.795866,-0.39511 -0.795866,-0.90311 0,-0.508 0.287866,-0.90311 0.795866,-0.90311 h 0.01129 c 0.259644,0 0.784577,0 0.784577,0.39511 h 0.508 c 0,-0.90311 -0.795866,-0.90311 -1.303866,-0.90311 -0.790222,0 -1.303866,0.508 -1.303866,1.41111 0,0.90311 0.513644,1.41111 1.303866,1.41111 z" />
      <path
         id="path1574"
         style="stroke-width:0.264583"
         d="m 24.861998,181.05667 h 2.607732 v -0.508 h -1.049866 v -3.72533 h -1.015999 v 0.508 h 0.507999 v 3.21733 h -1.049866 z" />
      <path
         id="path1576"
         style="stroke-width:0.264583"
         d="m 29.542297,176.82334 c -0.253999,0 -0.507999,0.254 -0.507999,0.508 0,0.254 0.254,0.508 0.507999,0.508 0.254,0 0.508,-0.254 0.508,-0.508 0,-0.254 -0.254,-0.508 -0.508,-0.508 z m -1.196621,4.23333 h 2.607732 v -0.508 h -1.049866 v -2.31422 h -1.303866 v 0.508 h 0.795866 v 1.80622 h -1.049866 z" />
      <path
         id="path1578"
         style="stroke-width:0.264583"
         d="m 33.13322,181.05667 h 1.049866 v -0.508 H 33.13322 c -0.508,0 -0.795866,0 -0.795866,-0.64911 h 2.099731 v -0.254 c 0,-1.41111 -0.513644,-1.41111 -1.303865,-1.41111 -0.790222,0 -1.303866,0 -1.303866,1.41111 0,1.41111 0.513644,1.41111 1.303866,1.41111 z m -0.795866,-1.66511 c 0,-0.64911 0.287866,-0.64911 0.795866,-0.64911 0.507999,0 0.795866,0 0.795866,0.64911 z" />
      <path
         id="path1580"
         style="stroke-width:0.264583"
         d="m 35.313031,181.05667 h 0.508 v -1.524 c 0,-0.79022 0.0056,-0.79022 0.795866,-0.79022 0.790221,0 0.795866,0.79022 0.795866,0.79022 v 1.524 h 0.507999 v -1.524 c 0,0 -0.0056,-1.29822 -1.303865,-1.29822 -1.298222,0 -1.303866,0 -1.303866,1.29822 z" />
      <path
         id="path1582"
         style="stroke-width:0.264583"
         d="m 40.331997,181.05667 h 0.790222 v -0.508 c -1.349021,0 -1.535288,-0.19191 -1.535288,-0.90311 v -0.90311 h 1.535288 v -0.508 h -1.535288 v -1.41111 h -0.564444 v 2.82222 c 0,1.05551 0.344311,1.41111 1.30951,1.41111 z" />
      <path
         id="path1584"
         style="stroke-width:0.264583"
         d="m 42.500522,181.56467 c 2.16182,0 2.167465,-2.37066 2.167465,-2.37066 0,0 -0.0056,-2.37067 -2.167465,-2.37067 v 0.508 c 1.648176,0 1.653821,1.84009 1.653821,1.86267 0,0.0226 -0.0056,1.86266 -1.653821,1.86266 z" />
    </g>
    <path
       sodipodi:nodetypes="cc"
       inkscape:connector-curvature="0"
       id="path1106"
       d="M 93.675699,99.253531 60.420785,123.06569"
       style="fill:none;stroke:#000000;stroke-width:0.264583px;stroke-linecap:butt;stroke-linejoin:miter;stroke-opacity:1" />
    <path
       sodipodi:nodetypes="cc"
       inkscape:connector-curvature="0"
       id="path1110"
       d="M 93.675699,99.253531 123.92077,123.22662"
       style="fill:none;stroke:#000000;stroke-width:0.264583px;stroke-linecap:butt;stroke-linejoin:miter;stroke-opacity:1" />
    <path
       inkscape:connector-curvature="0"
       id="path1142"
       d="M 60.420784,144.31448 32.621598,165.39387"
       style="fill:none;stroke:#000000;stroke-width:0.264583px;stroke-linecap:butt;stroke-linejoin:miter;stroke-opacity:1" />
    <path
       inkscape:connector-curvature="0"
       id="path1144"
       d="M 60.420784,144.31448 86.067436,165.67"
       style="fill:none;stroke:#000000;stroke-width:0.264583px;stroke-linecap:butt;stroke-linejoin:miter;stroke-opacity:1" />
    <g
       style="font-style:normal;font-weight:normal;font-size:10.5833px;line-height:1.25;font-family:sans-serif;letter-spacing:0px;word-spacing:0px;fill:#00ff00;fill-opacity:1;stroke:none;stroke-width:0.264583"
       id="text2162"
       aria-label="1.">
      <path
         id="path2174"
         style="fill:#00ff00;stroke-width:0.264583"
         d="m 40.913686,199.01294 h 1.705317 v -5.88593 l -1.855178,0.37207 v -0.95084 l 1.844842,-0.37207 h 1.043861 v 6.83677 h 1.705317 v 0.87849 h -4.444159 z" />
      <path
         id="path2176"
         style="fill:#00ff00;stroke-width:0.264583"
         d="m 47.471404,198.57886 h 1.09037 v 1.31257 h -1.09037 z" />
    </g>
    <g
       style="font-style:normal;font-weight:normal;font-size:10.5833px;line-height:1.25;font-family:sans-serif;letter-spacing:0px;word-spacing:0px;fill:#00ff00;fill-opacity:1;stroke:none;stroke-width:0.264583"
       id="text2168"
       aria-label="2.">
      <path
         id="path2179"
         style="fill:#00ff00;stroke-width:0.264583"
         d="m 94.548646,199.01294 h 3.643177 v 0.87849 h -4.89891 v -0.87849 q 0.594277,-0.61495 1.617467,-1.64848 1.028358,-1.03869 1.291907,-1.33841 0.50126,-0.56327 0.697629,-0.95084 0.201538,-0.39274 0.201538,-0.76998 0,-0.61495 -0.434081,-1.00252 -0.428913,-0.38757 -1.121375,-0.38757 -0.490924,0 -1.038693,0.17053 -0.542601,0.17053 -1.162716,0.51676 v -1.05419 q 0.630451,-0.25322 1.178219,-0.38241 0.547768,-0.12919 1.00252,-0.12919 1.198889,0 1.912022,0.59945 0.713132,0.59944 0.713132,1.60196 0,0.47542 -0.180867,0.90433 -0.175699,0.42375 -0.645953,1.00252 -0.129191,0.14987 -0.821653,0.86817 -0.692462,0.71313 -1.953363,1.99987 z" />
      <path
         id="path2181"
         style="fill:#00ff00;stroke-width:0.264583"
         d="m 100.38806,198.57886 h 1.09037 v 1.31257 h -1.09037 z" />
    </g>
    <g
       style="font-style:normal;font-weight:normal;font-size:10.5833px;line-height:1.25;font-family:sans-serif;letter-spacing:0px;word-spacing:0px;fill:#00ff00;fill-opacity:1;stroke:none;stroke-width:0.264583"
       id="text2172"
       aria-label="3.">
      <path
         id="path2184"
         style="fill:#00ff00;stroke-width:0.264583"
         d="m 134.38289,153.92736 q 0.74931,0.16019 1.16788,0.66662 0.42375,0.50643 0.42375,1.25057 0,1.14204 -0.78548,1.76732 -0.78548,0.62529 -2.23241,0.62529 -0.48576,0 -1.00252,-0.0982 -0.5116,-0.093 -1.05937,-0.28422 v -1.00768 q 0.43408,0.25321 0.95085,0.3824 0.51676,0.12919 1.08003,0.12919 0.98185,0 1.49344,-0.38757 0.51677,-0.38757 0.51677,-1.12654 0,-0.68213 -0.48059,-1.06454 -0.47542,-0.38757 -1.32808,-0.38757 h -0.89917 v -0.85782 h 0.94051 q 0.76997,0 1.17822,-0.30489 0.40824,-0.31006 0.40824,-0.88884 0,-0.59427 -0.42375,-0.9095 -0.41857,-0.32039 -1.20405,-0.32039 -0.42892,0 -0.91984,0.093 -0.49093,0.093 -1.08003,0.28938 v -0.93017 q 0.59427,-0.16536 1.11104,-0.24805 0.52193,-0.0827 0.98184,-0.0827 1.18856,0 1.88102,0.5426 0.69246,0.53744 0.69246,1.45727 0,0.64079 -0.3669,1.08521 -0.3669,0.43924 -1.04386,0.60978 z" />
      <path
         id="path2186"
         style="fill:#00ff00;stroke-width:0.264583"
         d="m 137.95889,156.77472 h 1.09037 v 1.31258 h -1.09037 z" />
    </g>
  </g>
</svg>
